
          <svg data-logo="logo" xmlns="http://www.w3.org/2000/svg" viewBox="0 0 179 43">
            <g id="logogram" transform="translate(0, 1) rotate(0)"><path fill-rule="evenodd" clip-rule="evenodd" d="M25.7226 12.468C24.0781 11.3692 22.1447 10.7827 20.1669 10.7827V0.782715C24.1225 0.782715 27.9893 1.95569 31.2783 4.15332C34.5672 6.35095 37.1307 9.47452 38.6444 13.129C40.1582 16.7836 40.5543 20.8049 39.7826 24.6845C39.0109 28.5641 37.106 32.1278 34.309 34.9248C31.5119 37.7219 27.9483 39.6267 24.0687 40.3984C20.189 41.1701 16.1677 40.774 12.5132 39.2603C8.85868 37.7465 5.7351 35.1831 3.53748 31.8941C1.33985 28.6051 0.16687 24.7383 0.16687 20.7827H10.1669C10.1669 22.7605 10.7534 24.6939 11.8522 26.3384C12.951 27.9829 14.5128 29.2646 16.34 30.0215C18.1673 30.7784 20.178 30.9764 22.1178 30.5906C24.0576 30.2047 25.8394 29.2523 27.2379 27.8538C28.6365 26.4552 29.5889 24.6734 29.9747 22.7336C30.3606 20.7938 30.1625 18.7831 29.4057 16.9559C28.6488 15.1286 27.3671 13.5668 25.7226 12.468Z" fill="#007DFC"/><path fill-rule="evenodd" clip-rule="evenodd" d="M10.1669 0.782746C10.1669 2.09596 9.90822 3.39632 9.40567 4.60958C8.90312 5.82284 8.16653 6.92523 7.23794 7.85381C6.30936 8.7824 5.20697 9.51899 3.99371 10.0215C2.78045 10.5241 1.48009 10.7827 0.166876 10.7827L0.16687 20.7827C2.79331 20.7827 5.39403 20.2654 7.82055 19.2603C10.2471 18.2552 12.4518 16.7821 14.309 14.9249C16.1662 13.0677 17.6394 10.8629 18.6445 8.43641C19.6496 6.0099 20.1669 3.40915 20.1669 0.782715L10.1669 0.782746Z" fill="#007DFC"/></g>
            <g id="logotype" transform="translate(47, 12)"><path fill="#0457dc" d="M7.75 0.93L7.75 0.93Q7.75 0.45 8.15 0.45L8.15 0.45L20.55 0.45Q20.93 0.45 20.93 0.88L20.93 0.88L20.93 3.13Q20.93 3.65 20.43 3.65L20.43 3.65L12.60 3.65Q12.13 3.65 12.13 4.05L12.13 4.05L12.13 7.92Q12.13 8.32 12.50 8.32L12.50 8.32L17.93 8.32Q18.33 8.32 18.33 8.72L18.33 8.72L18.33 11.10Q18.33 11.45 17.95 11.45L17.95 11.45L12.48 11.45Q12.13 11.45 12.13 11.77L12.13 11.77L12.13 18.43Q12.13 19 11.48 19L11.48 19L8.30 19Q7.97 19 7.86 18.88Q7.75 18.75 7.75 18.48L7.75 18.48L7.75 0.93ZM26.98 19.25L26.98 19.25Q25 19.25 23.49 18.38Q21.98 17.50 21.13 15.96Q20.27 14.43 20.27 12.45L20.27 12.45Q20.27 10.38 21.15 8.81Q22.02 7.25 23.55 6.38Q25.07 5.50 27 5.50L27 5.50Q29.02 5.50 30.52 6.39Q32.02 7.27 32.86 8.84Q33.70 10.40 33.70 12.43L33.70 12.43Q33.70 14.43 32.85 15.96Q32 17.50 30.49 18.38Q28.98 19.25 26.98 19.25L26.98 19.25ZM27 16.70L27 16.70Q27.93 16.70 28.55 16.21Q29.18 15.72 29.49 14.75Q29.80 13.77 29.80 12.38L29.80 12.38Q29.80 10.90 29.49 9.94Q29.18 8.97 28.55 8.47Q27.93 7.97 27 7.97L27 7.97Q26.10 7.97 25.46 8.47Q24.82 8.97 24.50 9.94Q24.18 10.90 24.18 12.38L24.18 12.38Q24.18 13.80 24.50 14.76Q24.82 15.72 25.46 16.21Q26.10 16.70 27 16.70L27 16.70ZM41.95 19.25L41.95 19.25Q39.98 19.25 38.46 18.38Q36.95 17.50 36.10 15.96Q35.25 14.43 35.25 12.45L35.25 12.45Q35.25 10.38 36.13 8.81Q37 7.25 38.52 6.38Q40.05 5.50 41.98 5.50L41.98 5.50Q44 5.50 45.50 6.39Q47 7.27 47.84 8.84Q48.68 10.40 48.68 12.43L48.68 12.43Q48.68 14.43 47.83 15.96Q46.98 17.50 45.46 18.38Q43.95 19.25 41.95 19.25L41.95 19.25ZM41.98 16.70L41.98 16.70Q42.90 16.70 43.53 16.21Q44.15 15.72 44.46 14.75Q44.78 13.77 44.78 12.38L44.78 12.38Q44.78 10.90 44.46 9.94Q44.15 8.97 43.53 8.47Q42.90 7.97 41.98 7.97L41.98 7.97Q41.08 7.97 40.44 8.47Q39.80 8.97 39.48 9.94Q39.15 10.90 39.15 12.38L39.15 12.38Q39.15 13.80 39.48 14.76Q39.80 15.72 40.44 16.21Q41.08 16.70 41.98 16.70L41.98 16.70ZM60.03 19L60.03 19Q59.83 19 59.66 18.89Q59.50 18.77 59.50 18.50L59.50 18.50L59.50 17.80Q59.50 17.63 59.40 17.60Q59.30 17.57 59.15 17.70L59.15 17.70Q58.75 18.07 58.25 18.44Q57.75 18.80 57.08 19.02Q56.40 19.25 55.50 19.25L55.50 19.25Q53.98 19.25 52.80 18.50Q51.63 17.75 50.95 16.24Q50.28 14.72 50.28 12.47L50.28 12.47Q50.28 10.38 51.01 8.81Q51.75 7.25 53 6.38Q54.25 5.50 55.75 5.50L55.75 5.50Q56.75 5.50 57.53 5.82Q58.30 6.15 59.03 6.82L59.03 6.82Q59.23 6.97 59.34 6.94Q59.45 6.90 59.45 6.63L59.45 6.63L59.45 0.90Q59.45 0.45 59.85 0.45L59.85 0.45L62.90 0.45Q63.30 0.45 63.30 0.93L63.30 0.93L63.30 18.48Q63.30 18.75 63.18 18.88Q63.05 19 62.73 19L62.73 19L60.03 19ZM59.45 9.20L59.45 9.20Q58.90 8.60 58.34 8.29Q57.78 7.97 57.05 7.97L57.05 7.97Q56.23 7.97 55.56 8.44Q54.90 8.90 54.54 9.88Q54.18 10.85 54.18 12.43L54.18 12.43Q54.18 14.02 54.54 15Q54.90 15.97 55.54 16.41Q56.18 16.85 57 16.85L57 16.85Q57.70 16.85 58.25 16.52Q58.80 16.20 59.13 15.70Q59.45 15.20 59.45 14.65L59.45 14.65L59.45 9.20ZM74.23 9.20L74.23 9.20Q73.80 8.65 73.08 8.25Q72.35 7.85 71.30 7.85L71.30 7.85Q70.38 7.85 69.74 8.21Q69.10 8.57 69.10 9.20L69.10 9.20Q69.10 9.53 69.35 9.81Q69.60 10.10 70.50 10.32L70.50 10.32L73.38 11.02Q75.45 11.50 76.33 12.57Q77.20 13.65 77.20 14.97L77.20 14.97Q77.20 16.32 76.44 17.27Q75.68 18.23 74.33 18.74Q72.98 19.25 71.23 19.25L71.23 19.25Q69.00 19.25 67.45 18.46Q65.90 17.68 65.28 16.50L65.28 16.50Q65.18 16.32 65.18 16.16Q65.18 16 65.33 15.93L65.33 15.93L67.03 15.05Q67.28 14.93 67.41 14.94Q67.55 14.95 67.65 15.07L67.65 15.07Q67.98 15.53 68.43 15.93Q68.88 16.32 69.55 16.56Q70.23 16.80 71.25 16.77L71.25 16.77Q71.95 16.77 72.51 16.61Q73.08 16.45 73.40 16.14Q73.73 15.82 73.73 15.40L73.73 15.40Q73.73 14.97 73.38 14.66Q73.03 14.35 72.08 14.13L72.08 14.13L69.50 13.57Q67.63 13.15 66.66 12.24Q65.70 11.32 65.70 9.85L65.70 9.85Q65.70 8.57 66.36 7.60Q67.03 6.63 68.30 6.06Q69.58 5.50 71.35 5.50L71.35 5.50Q73.25 5.50 74.64 6.20Q76.03 6.90 76.63 7.88L76.63 7.88Q76.73 8.02 76.78 8.19Q76.83 8.35 76.60 8.47L76.60 8.47L74.80 9.35Q74.63 9.42 74.49 9.39Q74.35 9.35 74.23 9.20L74.23 9.20ZM79.85 19L79.85 19Q79.33 19 79.33 18.50L79.33 18.50L79.33 0.93Q79.33 0.45 79.73 0.45L79.73 0.45L82.73 0.45Q83.10 0.45 83.10 0.88L83.10 0.88L83.10 7.27Q83.10 7.42 83.18 7.46Q83.25 7.50 83.40 7.38L83.40 7.38Q84.18 6.67 84.86 6.27Q85.55 5.88 86.24 5.69Q86.93 5.50 87.63 5.50L87.63 5.50Q89.53 5.50 90.55 6.55Q91.58 7.60 91.58 9.50L91.58 9.50L91.58 18.40Q91.58 19 90.98 19L90.98 19L88.20 19Q87.95 19 87.84 18.89Q87.73 18.77 87.73 18.50L87.73 18.50L87.73 10.05Q87.73 9.20 87.28 8.74Q86.83 8.27 85.93 8.27L85.93 8.27Q85.40 8.27 84.95 8.45Q84.50 8.63 84.08 8.96Q83.65 9.30 83.18 9.82L83.18 9.82L83.18 18.43Q83.18 19 82.53 19L82.53 19L79.85 19ZM101.38 17.73L101.38 17.73Q100.60 18.43 99.64 18.84Q98.68 19.25 97.43 19.25L97.43 19.25Q95.53 19.25 94.44 18.23Q93.35 17.20 93.35 15.60L93.35 15.60Q93.35 14.20 94.21 13.15Q95.08 12.10 96.70 11.51Q98.33 10.92 100.60 10.88L100.60 10.88L101.48 10.80Q101.60 10.80 101.74 10.72Q101.88 10.65 101.88 10.45L101.88 10.45L101.88 9.92Q101.88 8.97 101.33 8.44Q100.78 7.90 99.75 7.90L99.75 7.90Q99.00 7.90 98.31 8.24Q97.63 8.57 97.15 9.40L97.15 9.40Q97.05 9.57 96.96 9.63Q96.88 9.67 96.60 9.63L96.60 9.63L94.10 9.05Q93.95 9 93.89 8.89Q93.83 8.77 93.98 8.40L93.98 8.40Q94.60 6.92 96.14 6.21Q97.68 5.50 99.93 5.50L99.93 5.50Q101.98 5.50 103.21 6.02Q104.45 6.55 105.00 7.49Q105.55 8.42 105.55 9.67L105.55 9.67L105.55 18.45Q105.55 18.75 105.45 18.88Q105.35 19 105.05 19L105.05 19L102.50 19Q102.23 19 102.11 18.80Q102.00 18.60 101.95 18.30L101.95 18.30L101.93 17.75Q101.85 17.30 101.38 17.73L101.38 17.73ZM101.88 13.10L101.88 13.10Q101.88 12.68 101.50 12.68L101.50 12.68L100.80 12.72Q100.15 12.75 99.50 12.91Q98.85 13.07 98.31 13.36Q97.78 13.65 97.45 14.09Q97.13 14.52 97.13 15.10L97.13 15.10Q97.13 15.85 97.65 16.29Q98.18 16.73 99.10 16.73L99.10 16.73Q99.73 16.73 100.21 16.52Q100.70 16.32 101.05 16.05L101.05 16.05Q101.40 15.72 101.64 15.40Q101.88 15.07 101.88 14.72L101.88 14.72L101.88 13.10ZM108.83 19L108.83 19Q108.55 19 108.43 18.88Q108.30 18.75 108.30 18.50L108.30 18.50L108.30 6.22Q108.30 5.75 108.70 5.75L108.70 5.75L111.63 5.75Q112.03 5.75 112.03 6.17L112.03 6.17L112.03 7.65Q112.03 7.80 112.14 7.84Q112.25 7.88 112.38 7.72L112.38 7.72Q112.88 7.05 113.51 6.55Q114.15 6.05 114.83 5.77Q115.50 5.50 116.10 5.50L116.10 5.50Q117.00 5.50 117.00 5.92L117.00 5.92L117.00 8.82Q117.00 9.22 116.63 9.15L116.63 9.15Q116.18 9.02 115.70 8.99Q115.23 8.95 114.88 8.95L114.88 8.95Q114.43 8.95 113.94 9.13Q113.45 9.30 113.05 9.63Q112.65 9.95 112.40 10.32Q112.15 10.70 112.15 11.13L112.15 11.13L112.15 18.43Q112.15 19 111.50 19L111.50 19L108.83 19ZM121.90 13.50L121.90 13.50Q121.90 14.43 122.34 15.14Q122.78 15.85 123.51 16.24Q124.25 16.63 125.18 16.63L125.18 16.63Q126.08 16.63 126.84 16.24Q127.60 15.85 128.38 14.95L128.38 14.95Q128.48 14.85 128.55 14.84Q128.63 14.82 128.83 14.93L128.83 14.93L130.63 15.68Q130.98 15.82 130.70 16.18L130.70 16.18Q129.90 17.32 129.03 18Q128.15 18.68 127.09 18.96Q126.03 19.25 124.70 19.25L124.70 19.25Q122.75 19.25 121.23 18.40Q119.70 17.55 118.81 16.04Q117.93 14.52 117.93 12.57L117.93 12.57Q117.93 10.42 118.84 8.84Q119.75 7.25 121.28 6.38Q122.80 5.50 124.63 5.50L124.63 5.50Q126.55 5.50 128.00 6.34Q129.45 7.17 130.29 8.72Q131.13 10.28 131.13 12.50L131.13 12.50Q131.13 12.77 131.08 12.93Q131.03 13.07 130.70 13.10L130.70 13.10L122.20 13.10Q122.05 13.10 121.98 13.20Q121.90 13.30 121.90 13.50L121.90 13.50ZM121.95 10.97L126.93 11Q127.20 11 127.28 10.94Q127.35 10.88 127.35 10.65L127.35 10.65Q127.35 10.03 127.06 9.38Q126.78 8.72 126.21 8.29Q125.65 7.85 124.78 7.85L124.78 7.85Q123.95 7.85 123.30 8.25Q122.65 8.65 122.30 9.36Q121.95 10.07 121.95 10.97L121.95 10.97Z"/></g>
            
          </svg>
        